<svg width="400" height="400" viewBox="0 0 400 400" fill="none" xmlns="http://www.w3.org/2000/svg">
<rect width="400" height="400" fill="white"/>
<path d="M216.168 310.561C216.168 319.762 208.709 327.229 199.5 327.229C190.299 327.229 182.832 319.762 182.832 310.561C182.832 301.352 190.299 293.886 199.5 293.886C208.709 293.886 216.168 301.352 216.168 310.561Z" fill="#E1E8ED"/>
<path d="M274.501 181.668C274.501 140.244 240.917 106.667 199.5 106.667C158.083 106.667 124.499 140.244 124.499 181.668C124.499 223.334 116.169 310.561 116.169 310.561C116.169 319.755 123.636 327.221 132.837 327.221C142.038 327.221 149.504 319.755 149.504 310.561C149.504 319.755 156.963 327.221 166.172 327.221C175.373 327.221 182.832 319.755 182.832 310.561H216.168C216.168 319.755 223.634 327.221 232.843 327.221C242.037 327.221 249.503 319.755 249.503 310.561C249.503 319.755 256.962 327.221 266.171 327.221C275.372 327.221 282.831 319.755 282.831 310.561C282.831 310.561 274.501 223.334 274.501 181.668Z" fill="#E1E8ED"/>
<path d="M215.056 83.3333C215.056 100.514 203.801 130 199.5 130C195.207 130 183.944 100.514 183.944 83.3333C183.944 66.1522 195.207 60 199.5 60C203.801 60 215.056 66.1522 215.056 83.3333Z" fill="#F05959"/>
<path d="M181.106 316.667C181.106 296.351 194.413 254.444 199.5 254.444C204.587 254.444 217.894 296.351 217.894 316.667C217.894 336.982 204.579 340 199.5 340C194.413 340 181.106 336.982 181.106 316.667Z" fill="#F05959"/>
<path d="M253.944 235C253.944 246.667 216.681 270 199.5 270C182.319 270 145.056 246.667 145.056 235C145.056 223.333 182.319 200 199.5 200C216.681 200 253.944 223.333 253.944 235Z" fill="#F4900C"/>
<path d="M253.944 235C253.944 246.667 145.056 246.667 145.056 235C145.056 223.333 182.319 200 199.5 200C216.681 200 253.944 223.333 253.944 235Z" fill="#FFAC33"/>
<path d="M160.611 203.889C160.611 210.329 155.392 215.556 148.944 215.556C142.497 215.556 137.278 210.329 137.278 203.889C137.278 197.441 142.497 192.222 148.944 192.222C155.392 192.222 160.611 197.441 160.611 203.889Z" fill="#292F33"/>
<path d="M261.722 203.889C261.722 210.329 256.496 215.556 250.056 215.556C243.616 215.556 238.389 210.329 238.389 203.889C238.389 197.441 243.616 192.222 250.056 192.222C256.496 192.222 261.722 197.441 261.722 203.889Z" fill="#292F33"/>
</svg>
