<svg width="22" height="22" viewBox="0 0 22 22" fill="none" xmlns="http://www.w3.org/2000/svg">
<rect width="22" height="22" rx="5" fill="#F40000"/>
<path fill-rule="evenodd" clip-rule="evenodd" d="M6.19432 14.8812C5.97858 14.8174 5.78172 14.7039 5.62038 14.5502C5.45903 14.3965 5.33792 14.2072 5.26727 13.9982C4.86356 12.9181 4.74394 8.40781 5.52146 7.51744C5.78024 7.2278 6.14559 7.04947 6.53823 7.02117C8.62408 6.80222 15.0686 6.83142 15.8087 7.09415C16.0169 7.16008 16.2071 7.27114 16.365 7.41902C16.523 7.56689 16.6446 7.74775 16.7208 7.94803C17.1619 9.06464 17.1768 13.1224 16.661 14.1952C16.5242 14.4745 16.2951 14.7007 16.0106 14.8375C15.233 15.217 7.22603 15.2097 6.19432 14.8812V14.8812ZM9.50627 12.7648L13.2444 10.8673L9.50627 8.95517V12.7648Z" fill="white"/>
</svg>
