<svg width="400" height="400" viewBox="0 0 400 400" fill="none" xmlns="http://www.w3.org/2000/svg">
<rect width="400" height="400" fill="white"/>
<path d="M170.947 211.597L171.105 211.439C171.105 211.36 171.026 211.281 170.947 211.281V211.597Z" fill="#0000FF"/>
<path d="M184.959 292.66C185.571 292.66 186.067 292.164 186.067 291.552C186.067 290.94 185.571 290.444 184.959 290.444C184.347 290.444 183.851 290.94 183.851 291.552C183.851 292.164 184.347 292.66 184.959 292.66Z" fill="#0000FF"/>
<path d="M231.032 211.597L231.19 211.439C231.19 211.36 231.111 211.281 231.032 211.281V211.597Z" fill="#0000FF"/>
<path d="M146.169 271.207C145.773 293.294 150.998 312.372 175.46 322.426C191.055 328.838 209.025 328.838 224.62 322.426C249.24 312.372 254.385 293.056 253.831 270.89C208.946 241.363 158.835 264.478 146.169 271.207ZM184.959 303.268C178.547 303.268 173.322 298.043 173.322 291.631C173.322 285.219 178.547 279.915 184.959 279.915C191.371 279.915 196.596 285.14 196.596 291.552C196.596 297.964 191.371 303.268 184.959 303.268ZM215.041 303.268C208.629 303.268 203.404 298.043 203.404 291.631C203.404 285.219 208.629 279.915 215.041 279.915C221.453 279.915 226.678 285.14 226.678 291.552C226.678 297.964 221.453 303.268 215.041 303.268ZM322.94 141.3C301.25 140.905 288.9 146.129 283.755 148.9C288.029 158.162 290.563 168.77 291.433 180.644C312.491 172.095 320.645 153.412 323.732 142.329C323.732 142.25 323.811 141.934 323.574 141.617C323.495 141.459 323.257 141.3 322.94 141.3Z" fill="#AAA69D"/>
<path d="M257.393 134.73C234.436 115.335 200.95 118.581 200.633 118.66L200 118.739L199.367 118.66C199.288 118.66 197.15 118.422 193.667 118.422C183.059 118.422 159.706 120.243 142.607 134.809C129.782 145.654 122.658 161.725 121.312 182.624C120.045 202.731 125.824 218.405 138.569 229.33C145.219 235.03 148.623 243.421 147.673 251.812C147.515 253.316 147.357 254.9 147.198 256.404C166.91 247.221 210.45 232.496 252.881 255.295C252.802 254.187 252.643 253.079 252.564 251.891C251.614 243.342 255.018 234.95 261.668 229.33C274.413 218.405 280.192 202.731 278.926 182.624C277.422 161.725 270.218 145.654 257.393 134.73ZM170.947 224.343C163.822 224.343 158.044 218.564 158.044 211.439C158.044 204.314 163.822 198.535 170.947 198.535C178.072 198.535 183.851 204.314 183.851 211.439C183.851 218.564 178.072 224.343 170.947 224.343ZM231.032 224.343C223.907 224.343 218.128 218.564 218.128 211.439C218.128 204.314 223.907 198.535 231.032 198.535C238.157 198.535 243.936 204.314 243.936 211.439C243.936 218.564 238.157 224.343 231.032 224.343Z" fill="#F7F1E3"/>
<path d="M215.041 292.66C215.653 292.66 216.149 292.164 216.149 291.552C216.149 290.94 215.653 290.444 215.041 290.444C214.429 290.444 213.933 290.94 213.933 291.552C213.933 292.164 214.429 292.66 215.041 292.66Z" fill="#0000FF"/>
<path d="M77.0597 141.3C76.743 141.3 76.5056 141.459 76.3472 141.617C76.1097 141.934 76.1889 142.25 76.1889 142.33C79.2763 153.492 87.5092 172.095 108.487 180.645C109.358 168.77 111.891 158.162 116.166 148.9C111.1 146.129 98.7504 140.984 77.0597 141.3ZM157.489 111.773C147.594 102.748 140.549 89.2903 136.036 78.2866C132.711 90.3986 130.653 107.181 137.699 122.301C144.032 117.631 150.84 114.227 157.489 111.773ZM263.885 78.2866C259.372 89.2903 252.327 102.748 242.431 111.773C249.081 114.227 255.889 117.631 262.222 122.38C269.268 107.181 267.289 90.3986 263.885 78.2866Z" fill="#AAA69D"/>
<path d="M184.959 279.915C178.547 279.915 173.322 285.14 173.322 291.552C173.322 297.964 178.547 303.189 184.959 303.189C191.371 303.189 196.596 297.964 196.596 291.552C196.596 285.14 191.371 279.915 184.959 279.915ZM184.959 292.739C184.326 292.739 183.851 292.264 183.851 291.631C183.851 290.998 184.326 290.523 184.959 290.523C185.592 290.523 186.067 290.998 186.067 291.631C186.067 292.185 185.592 292.739 184.959 292.739ZM215.041 279.915C208.629 279.915 203.404 285.14 203.404 291.552C203.404 297.964 208.629 303.189 215.041 303.189C221.453 303.189 226.678 297.964 226.678 291.552C226.678 285.14 221.453 279.915 215.041 279.915ZM215.041 292.739C214.408 292.739 213.933 292.264 213.933 291.631C213.933 290.998 214.408 290.523 215.041 290.523C215.674 290.523 216.149 290.998 216.149 291.631C216.149 292.185 215.674 292.739 215.041 292.739Z" fill="#0F100F"/>
<path d="M333.865 134.018C331.332 130.614 327.453 128.634 323.178 128.555C298.875 128.08 284.309 134.018 277.422 137.897C275.759 135.601 274.018 133.384 272.118 131.326C285.1 107.815 278.846 81.2157 273.622 66.6497C272.197 62.6124 268.476 60 264.201 60C264.201 60 264.201 60 264.122 60C259.847 60 256.127 62.6124 254.702 66.7289C251.06 77.0201 241.244 101.007 226.361 107.498C213.299 105.123 202.771 105.756 200 105.994C197.229 105.756 186.701 105.123 173.639 107.498C158.756 101.007 148.94 77.0201 145.298 66.7289C143.873 62.6915 140.153 60.0792 135.878 60C135.878 60 135.878 60 135.799 60C131.524 60 127.803 62.6124 126.378 66.6497C121.074 81.2157 114.9 107.815 127.882 131.326C125.982 133.384 124.241 135.601 122.578 137.897C115.691 134.018 101.046 128.08 76.8222 128.555C72.5474 128.634 68.6684 130.614 66.1352 134.018C63.6019 137.422 62.8103 141.696 63.9186 145.734C67.8767 160.062 78.8804 184.761 108.487 194.261C109.754 212.785 117.037 227.826 130.099 239.067C133.503 241.996 135.324 246.271 134.849 250.625C132.316 273.74 127.724 316.726 170.551 334.221C179.893 338.021 189.946 340 200 340C210.054 340 220.107 338.1 229.449 334.221C272.355 316.647 267.684 273.661 265.151 250.466C264.676 246.271 266.497 241.996 269.901 239.067C283.042 227.826 290.246 212.785 291.513 194.261C321.04 184.761 332.123 160.062 336.081 145.734C337.19 141.696 336.398 137.422 333.865 134.018ZM263.885 78.2867C267.21 90.3986 269.268 107.181 262.222 122.301C255.889 117.552 249.081 114.148 242.431 111.694C252.406 102.748 259.452 89.2904 263.885 78.2867ZM136.115 78.2867C140.628 89.2904 147.673 102.748 157.569 111.773C150.919 114.227 144.111 117.631 137.778 122.381C130.732 107.181 132.711 90.3986 136.115 78.2867ZM76.268 142.33C76.268 142.25 76.1889 141.934 76.4264 141.617C76.5847 141.38 76.8222 141.301 77.1388 141.301C98.8295 140.905 111.179 146.129 116.325 148.9C112.05 158.162 109.517 168.77 108.646 180.645C87.5092 172.174 79.3554 153.492 76.268 142.33ZM224.62 322.426C209.025 328.838 191.055 328.838 175.459 322.426C150.919 312.372 145.694 293.294 146.169 271.207C158.835 264.478 208.945 241.363 253.831 270.891C254.306 293.056 249.239 312.372 224.62 322.426ZM261.589 229.409C254.939 235.109 251.535 243.5 252.485 251.971C252.643 253.079 252.723 254.266 252.802 255.375C210.37 232.576 166.751 247.3 147.119 256.483C147.277 254.979 147.436 253.475 147.594 251.891C148.544 243.5 145.061 235.109 138.49 229.409C125.745 218.485 119.966 202.81 121.233 182.703C122.578 161.804 129.703 145.734 142.528 134.888C159.706 120.322 182.98 118.502 193.588 118.502C197.071 118.502 199.208 118.739 199.288 118.739L199.921 118.818L200.554 118.739C200.871 118.739 234.357 115.493 257.314 134.809C270.139 145.655 277.342 161.804 278.688 182.703C280.034 202.731 274.255 218.485 261.589 229.409ZM323.732 142.33C320.645 153.492 312.412 172.095 291.433 180.645C290.563 168.77 287.95 158.162 283.755 148.9C288.9 146.05 301.25 140.905 322.94 141.301C323.257 141.301 323.494 141.459 323.653 141.617C323.89 141.934 323.811 142.25 323.732 142.33Z" fill="#0F100F"/>
<path d="M170.947 198.535C163.822 198.535 158.044 204.314 158.044 211.439C158.044 218.563 163.822 224.342 170.947 224.342C178.072 224.342 183.851 218.563 183.851 211.439C183.851 204.314 178.072 198.535 170.947 198.535ZM170.947 211.597V211.36C171.026 211.36 171.105 211.439 171.105 211.518L170.947 211.597ZM231.032 198.535C223.907 198.535 218.128 204.314 218.128 211.439C218.128 218.563 223.907 224.342 231.032 224.342C238.157 224.342 243.936 218.563 243.936 211.439C243.936 204.314 238.157 198.535 231.032 198.535ZM231.032 211.597V211.36C231.111 211.36 231.19 211.439 231.19 211.518L231.032 211.597Z" fill="#0F100F"/>
</svg>
