<svg width="22" height="22" viewBox="0 0 22 22" fill="none" xmlns="http://www.w3.org/2000/svg">
<rect width="22" height="22" rx="5" fill="#55ACE3"/>
<path d="M16.83 8.19502C16.445 8.36002 16.005 8.47002 15.565 8.52502C16.005 8.25002 16.39 7.81003 16.555 7.31503C16.115 7.59003 15.675 7.75503 15.125 7.86503C14.74 7.42503 14.135 7.15002 13.53 7.15002C12.32 7.15002 11.33 8.14002 11.33 9.35002C11.33 9.51502 11.33 9.68002 11.385 9.84502C9.57005 9.73502 7.92005 8.85502 6.82005 7.53502C6.65505 7.86502 6.54505 8.25002 6.54505 8.63502C6.54505 9.40502 6.93005 10.065 7.53505 10.45C7.15005 10.45 6.82005 10.34 6.54505 10.175C6.54505 11.22 7.31504 12.155 8.30504 12.32C8.14004 12.375 7.92005 12.375 7.70005 12.375C7.53505 12.375 7.42505 12.375 7.26005 12.32C7.53505 13.2 8.36005 13.86 9.35005 13.86C8.58005 14.465 7.64505 14.795 6.60005 14.795C6.43505 14.795 6.27005 14.795 6.05005 14.74C7.04005 15.345 8.19505 15.73 9.46005 15.73C13.53 15.73 15.73 12.375 15.73 9.46002V9.18502C16.17 9.02002 16.555 8.63502 16.83 8.19502Z" fill="white"/>
</svg>
