<svg width="400" height="400" viewBox="0 0 400 400" fill="none" xmlns="http://www.w3.org/2000/svg">
<rect width="400" height="400" fill="white"/>
<path d="M272.543 146.381C291.794 146.381 307.399 131.392 307.399 112.901C307.399 94.4105 291.794 79.4209 272.543 79.4209C253.293 79.4209 237.687 94.4105 237.687 112.901C237.687 131.392 253.293 146.381 272.543 146.381Z" fill="#99597A"/>
<path d="M301.216 173.201C300.835 169.634 301.389 166.028 302.82 162.747C304.252 159.466 306.512 156.626 309.371 154.514C311.336 152.879 312.934 150.836 314.057 148.523C315.242 145.773 315.664 142.746 315.276 139.771C314.887 136.795 313.704 133.984 311.854 131.642C312.183 131.167 312.604 130.739 312.886 130.263C314.247 127.936 315.13 125.353 315.482 122.671C315.834 119.988 315.647 117.261 314.934 114.654C314.22 112.046 312.994 109.612 311.329 107.498C309.664 105.384 307.595 103.633 305.246 102.351C300.478 99.6357 294.859 98.8964 289.566 100.288C284.273 101.679 279.715 105.093 276.846 109.816C276.564 110.339 276.377 110.863 276.143 111.386C273.136 110.991 270.08 111.392 267.271 112.551C264.463 113.709 261.997 115.584 260.115 117.995C258.643 120.015 257.62 122.335 257.115 124.795C256.617 128.373 255.211 131.758 253.033 134.618C250.856 137.477 247.982 139.713 244.696 141.105C240.415 142.72 236.692 145.57 233.987 149.303C231.281 153.037 229.709 157.491 229.465 162.119C229.221 166.746 230.315 171.345 232.613 175.35C234.911 179.355 238.313 182.591 242.399 184.661L264.051 196.929C269.531 200.177 275.999 201.26 282.217 199.97C288.434 198.68 293.964 195.109 297.748 189.939C300.98 185.019 302.222 179.025 301.216 173.201V173.201Z" fill="#86D172"/>
<path d="M174.854 153.719C193.852 153.719 209.252 138.319 209.252 119.322C209.252 100.325 193.852 84.9244 174.854 84.9244C155.857 84.9244 140.457 100.325 140.457 119.322C140.457 138.319 155.857 153.719 174.854 153.719Z" fill="#FEDF4B"/>
<path d="M238.998 143.965C244.153 143.259 249.085 141.42 253.439 138.582C257.793 135.744 261.46 131.977 264.175 127.554C266.475 123.709 267.971 119.441 268.573 115.006C269.175 110.571 268.872 106.06 267.68 101.744C266.489 97.4289 264.434 93.3982 261.64 89.8943C258.846 86.3904 255.37 83.4858 251.42 81.3548C243.351 76.7751 233.814 75.4914 224.814 77.7735C215.814 80.0556 208.053 85.7258 203.161 93.5923C200.543 97.9581 198.982 102.872 198.602 107.944C198.222 113.015 199.033 118.106 200.971 122.811C193.808 122.907 186.786 124.811 180.56 128.345C174.335 131.878 169.109 136.926 165.371 143.017C162.599 147.651 160.798 152.798 160.077 158.145C159.355 163.493 159.729 168.93 161.174 174.13C162.62 179.33 165.108 184.184 168.487 188.399C171.867 192.614 176.069 196.102 180.839 198.654C190.52 204.083 201.931 205.573 212.688 202.816C223.446 200.058 232.719 193.265 238.57 183.856C242.196 177.846 244.147 170.981 244.222 163.968C244.297 156.956 242.494 150.051 238.998 143.965V143.965Z" fill="#4DA44C"/>
<path d="M153.874 125.323C154.194 118.727 152.539 112.185 149.121 106.541C144.27 98.6781 136.584 92.9928 127.661 90.6667C118.739 88.3407 109.265 89.5529 101.211 94.0513C97.2289 96.1794 93.7202 99.0976 90.8981 102.628C88.0759 106.159 85.9993 110.229 84.7945 114.59C83.5897 118.951 83.2818 123.512 83.8896 127.996C84.4974 132.48 86.0083 136.793 88.3302 140.673C91.7186 146.37 96.668 150.97 102.589 153.925C101.062 159.176 100.637 164.686 101.34 170.11C102.044 175.533 103.861 180.752 106.677 185.435C112.464 194.954 121.718 201.84 132.48 204.634C143.241 207.428 154.665 205.911 164.33 200.404C169.089 197.834 173.28 194.325 176.652 190.088C180.023 185.851 182.505 180.974 183.948 175.75C185.391 170.526 185.766 165.064 185.049 159.691C184.332 154.318 182.539 149.146 179.777 144.486C174.017 134.907 164.7 128.014 153.874 125.323V125.323Z" fill="#86D172"/>
<path d="M174.854 201.417C186.253 201.417 195.493 192.177 195.493 180.779C195.493 169.381 186.253 160.14 174.854 160.14C163.456 160.14 154.216 169.381 154.216 180.779C154.216 192.177 163.456 201.417 174.854 201.417Z" fill="#FA616A"/>
<path d="M140.457 275.716H266.122V309.629C266.11 311.452 265.743 313.254 265.041 314.933C264.34 316.612 263.319 318.136 262.035 319.416C260.752 320.696 259.231 321.707 257.561 322.393C255.891 323.079 254.104 323.426 252.301 323.413H154.184C150.543 323.413 147.052 321.951 144.477 319.348C141.903 316.745 140.457 313.215 140.457 309.533V275.716Z" fill="#F7F7F7"/>
<path d="M279.423 201.417C290.821 201.417 300.061 192.177 300.061 180.779C300.061 169.381 290.821 160.14 279.423 160.14C268.024 160.14 258.784 169.381 258.784 180.779C258.784 192.177 268.024 201.417 279.423 201.417Z" fill="#FA616A"/>
<path d="M104.683 187.658H300.061V206.501C300.073 219.083 297.603 231.544 292.791 243.172C287.979 254.799 280.92 265.365 272.018 274.264C263.115 283.163 252.544 290.221 240.909 295.035C229.275 299.848 216.804 302.323 204.211 302.316H200.439C187.858 302.31 175.402 299.828 163.781 295.012C152.16 290.196 141.602 283.14 132.71 274.247C123.818 265.354 116.767 254.798 111.958 243.183C107.149 231.567 104.677 219.118 104.683 206.548V187.705V187.658Z" fill="#F7F7F7"/>
<path d="M232.864 278.763H229.082C204.429 278.731 180.733 269.253 162.901 252.294C145.069 235.334 134.466 212.192 133.289 187.658H104.684V206.501C104.671 219.079 107.147 231.537 111.97 243.161C116.792 254.785 123.867 265.349 132.79 274.247C141.713 283.146 152.309 290.205 163.971 295.021C175.634 299.837 188.135 302.316 200.76 302.316H204.495C218.766 302.326 232.858 299.158 245.742 293.046C258.626 286.933 269.976 278.03 278.964 266.986C264.844 274.732 248.983 278.784 232.864 278.763V278.763Z" fill="#F2F2F2"/>
<path d="M289.544 228.148C293.61 219.947 292.157 210.945 286.299 208.041C280.442 205.137 272.398 209.431 268.332 217.632C264.267 225.832 265.72 234.834 271.577 237.738C277.435 240.642 285.479 236.348 289.544 228.148Z" fill="#FAFAFA"/>
<path d="M270.559 255.744C272.998 250.823 272.126 245.422 268.612 243.68C265.097 241.938 260.271 244.514 257.831 249.434C255.392 254.355 256.264 259.756 259.778 261.498C263.293 263.24 268.119 260.664 270.559 255.744Z" fill="#FAFAFA"/>
<path d="M319.524 114.38C318.021 108.578 314.438 103.531 309.456 100.198C307.426 94.9611 304.295 90.2208 300.274 86.2981C296.254 82.3754 291.438 79.3618 286.153 77.4609C285.565 77.2292 284.936 77.1178 284.304 77.1332C283.673 77.1487 283.05 77.2906 282.474 77.5508C281.898 77.8109 281.38 78.1839 280.951 78.6477C280.522 79.1115 280.19 79.6567 279.975 80.2511C279.76 80.8454 279.666 81.4768 279.699 82.108C279.733 82.7391 279.892 83.3572 280.169 83.9256C280.445 84.4941 280.832 85.0013 281.308 85.4173C281.784 85.8334 282.338 86.1498 282.938 86.3479C288.075 88.2363 292.59 91.5082 295.985 95.8022C291.551 95.5423 287.125 96.4225 283.128 98.3589C279.132 100.295 275.698 103.223 273.154 106.864C272.156 99.0942 268.77 91.8264 263.464 86.0643C266.329 85.1919 269.307 84.7459 272.303 84.7407C273.557 84.7407 274.759 84.2427 275.645 83.3561C276.532 82.4696 277.03 81.2673 277.03 80.0136C277.03 78.7599 276.532 77.5575 275.645 76.671C274.759 75.7845 273.557 75.2864 272.303 75.2864C266.389 75.3073 260.55 76.6138 255.192 79.1154C254.693 78.7808 254.171 78.4808 253.632 78.2173C244.743 73.2016 234.286 71.7345 224.361 74.1108C214.436 76.487 205.777 82.5305 200.123 91.0278C192.908 84.9576 183.791 81.6118 174.362 81.5735C168.736 81.5408 163.168 82.7039 158.026 84.9857C152.884 87.2676 148.285 90.6161 144.535 94.8095C138.243 89.4728 130.47 86.1871 122.258 85.3929C114.046 84.5987 105.788 86.3339 98.5899 90.366C94.0624 92.8528 90.0835 96.228 86.8915 100.289C83.6994 104.351 81.36 109.015 80.0132 114.002C79.7351 115.195 79.9315 116.45 80.561 117.502C81.1904 118.554 82.2037 119.32 83.3871 119.639C84.5705 119.957 85.8315 119.804 86.904 119.211C87.9766 118.618 88.7769 117.632 89.1361 116.46C90.1793 112.694 91.9734 109.178 94.4103 106.124C96.8473 103.069 99.8768 100.539 103.317 98.6857C109.475 95.2302 116.629 93.9837 123.593 95.1531C130.557 96.3224 136.912 99.8372 141.605 105.115C142.779 106.429 143.823 107.854 144.724 109.369C147.582 114.19 148.947 119.75 148.648 125.347C148.616 126.427 148.955 127.485 149.609 128.345C150.263 129.205 151.191 129.815 152.24 130.074C158.534 131.624 164.316 134.785 169.02 139.244C171.472 141.47 173.575 144.052 175.26 146.902C176.666 149.253 177.792 151.759 178.616 154.371C178.852 155.08 178.947 155.837 179.136 156.546C175.293 155.896 171.355 156.097 167.598 157.134C163.841 158.172 160.358 160.02 157.392 162.549C154.92 164.639 152.881 167.192 151.389 170.065L119.105 115.656C118.832 115.053 118.436 114.514 117.943 114.074C117.449 113.634 116.868 113.303 116.238 113.101C115.609 112.899 114.943 112.832 114.286 112.904C113.628 112.975 112.993 113.184 112.421 113.516C111.85 113.849 111.354 114.297 110.966 114.833C110.579 115.37 110.308 115.981 110.172 116.628C110.035 117.275 110.036 117.944 110.175 118.591C110.313 119.238 110.585 119.848 110.974 120.383L148.458 183.112H110.88L110.596 182.734C108.126 178.646 106.532 174.091 105.913 169.355C105.295 164.619 105.666 159.807 107.004 155.222C107.318 154.152 107.244 153.005 106.794 151.984C106.344 150.963 105.548 150.134 104.546 149.644C99.4366 147.163 95.1406 143.277 92.1613 138.441C90.3368 135.44 89.1015 132.119 88.5216 128.656C88.3085 127.402 87.6061 126.284 86.5689 125.548C85.5318 124.813 84.2448 124.519 82.9912 124.732C81.7375 124.945 80.6199 125.648 79.8841 126.685C79.1483 127.722 78.8547 129.009 79.0678 130.263C79.8115 134.855 81.4152 139.265 83.7947 143.262C86.9956 148.622 91.4581 153.117 96.7936 156.357C94.8705 165.978 96.2356 175.967 100.67 184.719C99.8817 185.586 99.4438 186.715 99.4407 187.887V206.795C99.4445 221.266 102.572 235.565 108.608 248.716C114.645 261.867 123.449 273.56 134.42 282.996V309.421C134.407 311.876 134.883 314.309 135.821 316.578C136.759 318.847 138.14 320.907 139.882 322.636C141.625 324.366 143.695 325.73 145.971 326.651C148.247 327.572 150.683 328.03 153.138 327.998H251.457C256.359 327.998 261.06 326.051 264.526 322.585C267.992 319.119 269.939 314.417 269.939 309.515V283.233C274.883 278.943 279.41 274.195 283.458 269.051C284.229 268.061 284.575 266.805 284.42 265.559C284.265 264.314 283.621 263.181 282.631 262.41C281.641 261.639 280.385 261.293 279.139 261.448C277.894 261.603 276.761 262.246 275.99 263.237C267.482 274.161 256.59 282.996 244.146 289.067C231.702 295.138 218.034 298.284 204.188 298.265H200.407C176.194 298.227 152.985 288.585 135.873 271.454C118.761 254.324 109.143 231.104 109.131 206.89V192.708H295.559V206.89C295.512 221.995 291.728 236.854 284.545 250.143C283.956 251.241 283.823 252.528 284.177 253.723C284.532 254.918 285.343 255.925 286.436 256.524C286.985 256.822 287.587 257.008 288.208 257.072C288.829 257.135 289.457 257.075 290.054 256.895C290.652 256.715 291.208 256.418 291.691 256.022C292.173 255.626 292.572 255.138 292.865 254.586C300.706 239.91 304.813 223.529 304.824 206.89V187.981C304.801 187.315 304.657 186.658 304.398 186.043C305.888 181.684 306.294 177.027 305.58 172.476C305.356 169.741 305.848 166.995 307.008 164.508C308.169 162.021 309.957 159.88 312.198 158.295C314.644 156.208 316.624 153.632 318.012 150.731C319.322 147.765 319.927 144.535 319.78 141.295C319.632 138.056 318.736 134.894 317.161 132.059C320.166 126.68 321.011 120.359 319.524 114.38V114.38ZM204.188 307.719C224.278 307.768 243.915 301.755 260.533 290.465V309.374C260.545 310.573 260.32 311.764 259.869 312.876C259.419 313.988 258.752 315 257.908 315.853C257.064 316.705 256.06 317.382 254.952 317.844C253.845 318.306 252.657 318.544 251.457 318.544H153.138C150.747 318.532 148.458 317.577 146.768 315.886C145.077 314.196 144.122 311.906 144.11 309.515V290.607C160.741 301.867 180.369 307.878 200.454 307.861L204.188 307.719ZM249.094 86.1588C250.102 86.7386 251.081 87.3697 252.025 88.0497C255.846 90.7789 258.939 94.4042 261.032 98.6076C263.125 102.811 264.155 107.464 264.031 112.158C263.9 116.962 262.533 121.651 260.06 125.772C257.373 130.217 253.557 133.87 248.999 136.361C245.723 138.157 242.154 139.357 238.458 139.906C237.698 140.015 236.975 140.308 236.353 140.759C235.731 141.21 235.229 141.806 234.889 142.495C234.549 143.184 234.382 143.945 234.403 144.713C234.424 145.481 234.631 146.233 235.008 146.902C237.958 152.106 239.508 157.986 239.508 163.967C239.508 169.949 237.958 175.829 235.008 181.032L234.535 181.883C234.247 182.343 233.931 182.785 233.59 183.207H199.887C199.887 182.545 199.887 181.883 199.887 181.174C199.877 179.969 199.767 178.768 199.556 177.581L237.702 113.718C238.184 112.652 238.253 111.444 237.896 110.33C237.54 109.215 236.782 108.273 235.77 107.685C234.759 107.096 233.565 106.904 232.42 107.146C231.275 107.387 230.26 108.044 229.572 108.991L195.066 166.756C193.417 164.485 191.385 162.517 189.062 160.942C188.868 157.808 188.281 154.711 187.313 151.724C186.289 148.418 184.877 145.244 183.107 142.27C181.811 140.15 180.34 138.142 178.711 136.266C185.185 131.272 193.084 128.474 201.258 128.278C202.022 128.263 202.771 128.063 203.441 127.696C204.112 127.328 204.683 126.803 205.106 126.167C205.529 125.53 205.791 124.8 205.87 124.04C205.949 123.28 205.842 122.511 205.559 121.801C202.746 114.973 202.746 107.31 205.559 100.482C206.041 99.2145 206.643 97.9957 207.355 96.8421C211.555 89.9805 218.264 85.0263 226.057 83.0315C233.85 81.0367 242.114 82.1586 249.094 86.1588V86.1588ZM152.76 104.547C152.193 103.602 151.578 102.751 150.964 101.9C153.867 98.4775 157.492 95.7402 161.578 93.8849C165.664 92.0296 170.111 91.1023 174.598 91.1696C182.695 91.1627 190.469 94.3373 196.247 100.009C194.227 106.242 193.916 112.903 195.349 119.296C186.794 120.523 178.727 124.034 171.998 129.459C167.742 126.152 162.944 123.609 157.818 121.943C157.566 115.82 155.83 109.85 152.76 104.547ZM163.537 169.64C166.127 167.446 169.325 166.094 172.703 165.764C176.081 165.435 179.48 166.144 182.445 167.796C184.354 168.845 186.017 170.291 187.321 172.036C188.626 173.78 189.542 175.784 190.008 177.912C190.297 178.975 190.441 180.072 190.433 181.174C190.482 181.851 190.482 182.53 190.433 183.207H158.243C158.22 183.018 158.22 182.828 158.243 182.639V182.639C158.266 182.483 158.266 182.323 158.243 182.167V181.221C158.218 179.02 158.679 176.84 159.594 174.838C160.51 172.836 161.856 171.061 163.537 169.64V169.64ZM270.601 168.08H270.932C273.44 166.611 276.297 165.844 279.204 165.858C283.421 165.769 287.501 167.357 290.55 170.272C293.598 173.188 295.365 177.193 295.465 181.41C295.513 182.087 295.513 182.766 295.465 183.443H263.322C263.273 182.719 263.273 181.993 263.322 181.269C263.291 178.628 263.946 176.025 265.222 173.714C266.498 171.402 268.351 169.461 270.601 168.08V168.08ZM308.416 128.278L307.754 129.176C307.174 129.981 306.861 130.948 306.861 131.941C306.861 132.934 307.174 133.901 307.754 134.706C309.11 136.341 309.99 138.317 310.299 140.417C310.607 142.518 310.332 144.664 309.503 146.619C308.7 148.286 307.557 149.768 306.147 150.968C302.097 154.234 299.022 158.551 297.261 163.447C292.4 158.762 285.908 156.151 279.157 156.168H278.495L294.945 128.561C295.334 128.026 295.606 127.416 295.744 126.769C295.883 126.122 295.883 125.453 295.747 124.806C295.611 124.159 295.34 123.547 294.953 123.011C294.565 122.475 294.069 122.027 293.498 121.694C292.926 121.362 292.291 121.153 291.633 121.081C290.976 121.01 290.31 121.077 289.68 121.279C289.051 121.48 288.47 121.812 287.976 122.252C287.483 122.692 287.087 123.231 286.814 123.834L264.976 160.469C261.737 162.517 259.021 165.293 257.043 168.576C255.066 171.858 253.881 175.557 253.584 179.378L251.363 183.065H248.763L245.36 181.174C247.626 175.905 248.83 170.241 248.903 164.506C248.976 158.771 247.917 153.078 245.785 147.753C248.411 146.906 250.957 145.83 253.395 144.539C259.459 141.206 264.519 136.309 268.049 130.357C270.552 125.992 272.159 121.171 272.776 116.176C273.467 116.105 274.164 116.105 274.855 116.176C275.836 116.261 276.818 116.038 277.665 115.538C278.512 115.038 279.183 114.286 279.582 113.387L279.866 112.773C279.866 112.773 279.866 112.347 279.866 112.3C282.128 108.651 285.717 106.022 289.878 104.964C294.038 103.907 298.447 104.503 302.177 106.627V106.627H302.46C304.224 107.65 305.767 109.012 307 110.635C308.233 112.257 309.132 114.109 309.645 116.082C310.334 118.08 310.585 120.204 310.381 122.308C310.177 124.412 309.523 126.448 308.464 128.278H308.416Z" fill="#202C35"/>
</svg>
