<svg width="400" height="400" viewBox="0 0 400 400" fill="none" xmlns="http://www.w3.org/2000/svg">
<rect width="400" height="400" fill="white"/>
<path d="M337.573 246.452C337.573 288.722 275.883 323 199.786 323C123.69 323 62 288.722 62 246.452C62 204.182 123.69 169.904 199.786 169.904C275.883 169.904 337.573 204.182 337.573 246.452Z" fill="#939598"/>
<path d="M337.573 231.142C337.573 273.412 275.883 307.69 199.786 307.69C123.69 307.69 62 273.412 62 231.142C62 188.873 123.69 154.595 199.786 154.595C275.883 154.595 337.573 188.873 337.573 231.142Z" fill="#F1F2F2"/>
<path d="M313.077 228.165C313.077 260.33 262.357 286.425 199.786 286.425C137.216 286.425 86.4953 260.33 86.4953 228.165C86.4953 195.992 137.216 169.904 199.786 169.904C262.357 169.904 313.077 195.992 313.077 228.165Z" fill="#FFCC4D"/>
<path d="M146.203 269.417C141.977 269.417 138.548 265.995 138.548 261.762C138.548 257.529 141.977 254.107 146.203 254.107C160.731 254.107 169.795 245.801 170.499 240.06C171.196 234.426 163.15 231.786 159.652 230.913C152.717 229.191 147.558 231.165 141.602 233.477C133.427 236.646 122.228 240.964 110.172 228.9C104.897 223.633 103.527 216.621 106.405 209.663C112.016 196.122 132.769 185.214 146.203 185.214C150.428 185.214 153.857 188.643 153.857 192.869C153.857 197.094 150.428 200.523 146.203 200.523C137.668 200.523 123.277 208.936 120.551 215.527C119.985 216.889 120.207 217.287 120.995 218.076C125.81 222.883 128.099 222.271 136.083 219.193C142.681 216.637 151.714 213.146 163.365 216.063C181.614 220.625 186.865 232.413 185.694 241.928C184.033 255.439 168.807 269.417 146.203 269.417Z" fill="#FFE8B6"/>
<path d="M192.132 277.071C187.906 277.071 184.477 273.65 184.477 269.416C184.477 265.183 187.906 261.762 192.132 261.762C235.741 261.762 267.401 252.216 286.232 233.385C289.225 230.392 294.063 230.392 297.056 233.385C300.049 236.378 300.049 241.216 297.056 244.209C275.247 266.018 239.951 277.071 192.132 277.071Z" fill="#FFE8B6"/>
<path d="M225.422 247.677C221.311 247.677 217.239 247.217 213.243 246.222C209.087 245.189 196.449 242.028 196.058 231.808C195.76 224.154 201.118 215.182 241.512 201.518C237.103 197.921 226.524 192.868 215.096 192.868C195.859 192.868 186.031 194.484 182.234 198.28C179.248 201.273 174.403 201.273 171.41 198.28C168.424 195.287 168.424 190.442 171.41 187.456C178.72 180.146 190.149 177.559 215.096 177.559C233.437 177.559 256.409 187.763 258.544 200.929C259.371 205.996 257.067 212.457 248.142 215.435C228.369 222.026 218.127 227.292 213.687 230.415C214.545 230.714 215.624 231.035 216.956 231.372C241.689 237.526 273.004 213.261 276.418 207.03C276.969 203.348 280.154 200.523 283.989 200.523C288.222 200.523 291.644 203.953 291.644 208.178C291.644 213.582 286.791 220.112 277.207 227.598C263.857 238.016 244.375 247.669 225.422 247.677Z" fill="#FFE8B6"/>
<path d="M268.679 219.66C268.679 238.682 253.148 261.761 215.096 261.761C177.044 261.761 184.477 246.452 123.238 223.488C97.3957 213.797 161.734 185.214 199.786 185.214C237.838 185.214 268.679 200.638 268.679 219.66Z" fill="#DD2E44"/>
<path d="M184.477 246.452C182.517 246.452 180.557 245.702 179.065 244.209C176.072 241.216 176.072 236.378 179.065 233.385C181.216 231.051 179.922 229.757 179.065 228.9C174.793 224.628 161.933 224.184 149.624 230.339C145.835 232.23 141.25 230.691 139.352 226.909C137.461 223.128 139 218.535 142.781 216.637C157.915 209.074 178.95 207.129 189.889 218.076C199.472 227.66 195.14 238.958 189.889 244.209C188.396 245.702 186.436 246.452 184.477 246.452Z" fill="#EA596E"/>
<path d="M215.096 215.833C196.617 215.833 186.88 206.104 179.065 198.28C176.072 195.287 176.072 190.449 179.065 187.456C182.058 184.463 186.896 184.463 189.889 187.456C197.191 194.759 202.955 200.523 215.096 200.523C221.013 200.523 234.891 200.523 240.303 195.111C243.296 192.118 248.134 192.118 251.127 195.111C254.12 198.104 254.12 202.942 251.127 205.935C241.229 215.833 223.577 215.833 215.096 215.833Z" fill="#EA596E"/>
<path d="M215.096 246.452C210.863 246.452 207.441 243.03 207.441 238.797C207.441 234.564 210.863 231.143 215.096 231.143C229.234 231.143 249.91 223.779 255.613 218.076C258.606 215.083 263.444 215.083 266.437 218.076C269.43 221.069 269.43 225.907 266.437 228.9C256.554 238.782 230.719 246.452 215.096 246.452Z" fill="#EA596E"/>
<path d="M192.139 215.833C189.33 215.833 186.628 214.286 185.28 211.6C177.641 196.313 161.734 164.5 153.919 101.96C153.391 97.7652 156.368 93.9378 160.563 93.4173C164.727 92.8815 168.585 95.8668 169.106 100.062C176.6 159.999 191.711 190.227 198.983 204.756C200.873 208.538 199.335 213.131 195.553 215.029C194.459 215.573 193.287 215.833 192.139 215.833Z" fill="#FFAC33"/>
<path d="M330.875 147.262L214.216 112.792C188.564 72.1527 156.299 78.6899 138.548 78.0469C136.634 77.978 132.279 79.731 132.171 82.8312C132.057 85.8319 140.018 85.4108 141.25 85.4568C154.301 85.9314 171.448 86.804 188.189 104.494C167.843 97.3983 136.588 92.8437 130.893 93.3565C127.387 93.678 127.066 96.2271 131.215 98.1408C134.613 99.7177 166.212 110.748 183.566 116.053C172.704 119.804 158.42 121.526 134.315 109.47C130.518 107.571 125.129 104.885 123.238 108.666C121.348 112.448 127.112 114.43 130.893 116.321C147.427 124.588 157.149 134.172 167.812 134.172C180.489 134.172 189.659 130.306 196.839 127.283C199.388 126.211 201.692 125.269 203.751 124.657C203.874 124.734 203.966 124.841 204.096 124.91L317.417 175.37C321.138 177.399 329.451 169.315 331.479 165.602C333.508 161.898 333.623 148.969 330.875 147.262Z" fill="#99AAB5"/>
<path d="M161.512 208.178C159.553 208.178 157.593 207.428 156.1 205.935C146.034 195.869 122.067 138.06 155.534 96.2266C158.175 92.9274 163.005 92.3992 166.297 95.0325C169.596 97.6734 170.132 102.488 167.491 105.795C139.558 140.709 161.528 189.715 166.924 195.111C169.917 198.104 169.917 202.942 166.924 205.935C165.432 207.428 163.472 208.178 161.512 208.178Z" fill="#FFAC33"/>
</svg>
