<svg width="400" height="400" viewBox="0 0 400 400" fill="none" xmlns="http://www.w3.org/2000/svg">
<rect width="400" height="400" fill="white"/>
<path d="M330.844 293.192C326.941 305.854 319.091 316.936 308.441 324.818C297.79 332.7 284.898 336.968 271.648 337H128.286C118.417 336.996 108.692 334.635 99.9194 330.114C91.1469 325.594 83.5804 319.044 77.8493 311.01C72.1182 302.976 68.3882 293.689 66.9695 283.923C65.5508 274.156 66.4844 264.193 69.6926 254.86L111.529 133.621C124.296 131.683 136.103 125.693 145.207 116.536L176.858 85.1033H222.364L253.796 116.536C263.141 125.91 275.333 131.919 288.459 133.621L330.241 254.86C334.484 267.253 334.695 280.671 330.844 293.192V293.192Z" fill="#D37B93"/>
<path d="M330.844 293.192C326.941 305.854 319.091 316.936 308.441 324.818C297.79 332.7 284.898 336.968 271.648 337H128.286C118.417 336.996 108.692 334.635 99.9194 330.114C91.1469 325.594 83.5804 319.044 77.8493 311.01C72.1182 302.976 68.3882 293.689 66.9695 283.923C65.5508 274.156 66.4844 264.193 69.6926 254.86L111.529 133.621C124.296 131.683 136.103 125.693 145.207 116.536L176.858 85.1033H222.364L253.796 116.536C263.141 125.91 275.333 131.919 288.459 133.621L330.241 254.86C334.484 267.253 334.695 280.671 330.844 293.192V293.192Z" fill="#D37B93"/>
<path d="M147.945 200.1C152.481 200.1 156.159 196.422 156.159 191.886C156.159 187.349 152.481 183.672 147.945 183.672C143.408 183.672 139.731 187.349 139.731 191.886C139.731 196.422 143.408 200.1 147.945 200.1Z" fill="#2D2D2D"/>
<path d="M251.989 200.1C256.526 200.1 260.203 196.422 260.203 191.886C260.203 187.349 256.526 183.672 251.989 183.672C247.453 183.672 243.775 187.349 243.775 191.886C243.775 196.422 247.453 200.1 251.989 200.1Z" fill="#2D2D2D"/>
<path d="M180.199 81.7626L176.858 85.103L145.207 116.535C139.613 122.132 132.971 126.571 125.661 129.6C118.351 132.629 110.516 134.188 102.603 134.188C94.6907 134.188 86.8555 132.629 79.5455 129.6C72.2355 126.571 65.5938 122.132 60 116.535L94.7727 81.7626C100.37 76.1333 107.026 71.666 114.356 68.6176C121.686 65.5693 129.547 64 137.486 64C145.424 64 153.285 65.5693 160.615 68.6176C167.945 71.666 174.601 76.1333 180.199 81.7626V81.7626ZM339.003 116.535C333.409 122.132 326.768 126.571 319.458 129.6C312.147 132.629 304.312 134.188 296.4 134.188C288.487 134.188 280.652 132.629 273.342 129.6C266.032 126.571 259.39 122.132 253.796 116.535L222.364 85.103L219.024 81.7626C224.617 76.1662 231.259 71.7267 238.569 68.6978C245.879 65.6688 253.714 64.1099 261.627 64.1099C269.54 64.1099 277.375 65.6688 284.685 68.6978C291.995 71.7267 298.637 76.1662 304.23 81.7626L339.003 116.535ZM172.587 232.955H227.347C236.061 232.955 244.418 236.417 250.58 242.579C256.742 248.74 260.203 257.098 260.203 265.812C260.203 278.883 255.011 291.418 245.768 300.661C236.526 309.903 223.99 315.096 210.919 315.096H189.015C175.944 315.096 163.408 309.903 154.166 300.661C144.923 291.418 139.731 278.883 139.731 265.812V265.812C139.731 257.098 143.192 248.74 149.354 242.579C155.516 236.417 163.873 232.955 172.587 232.955V232.955Z" fill="#EDCAD4"/>
<path d="M172.587 287.716C178.635 287.716 183.539 282.812 183.539 276.764C183.539 270.715 178.635 265.812 172.587 265.812C166.538 265.812 161.635 270.715 161.635 276.764C161.635 282.812 166.538 287.716 172.587 287.716Z" fill="#9D5B6E"/>
<path d="M227.347 287.716C233.396 287.716 238.299 282.812 238.299 276.764C238.299 270.715 233.396 265.812 227.347 265.812C221.298 265.812 216.395 270.715 216.395 276.764C216.395 282.812 221.298 287.716 227.347 287.716Z" fill="#9D5B6E"/>
</svg>
