<svg width="400" height="400" viewBox="0 0 400 400" fill="none" xmlns="http://www.w3.org/2000/svg">
<rect width="400" height="400" fill="white"/>
<path d="M297 201.089C297 198.732 295.079 196.855 292.766 196.855H287.178C284.951 175.42 266.311 158.657 244.222 159.705C242.083 138.052 223.792 121.071 201.615 121.071C179.919 121.071 162.195 136.874 159.27 157.828C155.298 157.304 151.282 157.391 147.44 158.002L123.168 63.1851C122.601 60.9151 120.287 59.5618 118.017 60.1293C115.747 60.6968 114.394 63.0105 114.961 65.2805L139.233 160.185C123.998 165.991 113.477 180.397 112.691 196.855H107.234C104.921 196.855 103 198.732 103 201.089C103 252.776 143.73 295.164 194.761 297.915V330.917H171.319C168.962 330.917 167.085 332.794 167.085 335.152C167.085 337.509 168.962 339.386 171.319 339.386H228.725C231.038 339.386 232.959 337.509 232.959 335.152C232.959 332.794 231.038 330.917 228.725 330.917H203.23V297.958C255.223 296.256 297 253.474 297 201.089ZM240.86 168.523C242.65 168.218 244.44 168.087 246.186 168.087C262.993 168.087 276.57 180.703 278.665 196.855H213.315C213.446 195.851 213.707 194.934 213.926 193.974C214.057 193.231 214.188 192.446 214.406 191.747C214.668 190.83 215.061 190.001 215.41 189.128C215.716 188.342 215.977 187.556 216.327 186.814C216.676 186.028 217.2 185.33 217.636 184.588C218.073 183.802 218.466 183.016 218.99 182.274C219.47 181.576 220.037 181.008 220.561 180.353C221.129 179.655 221.653 178.869 222.307 178.214C222.875 177.647 223.573 177.123 224.185 176.556C224.839 175.944 225.494 175.29 226.236 174.766C226.935 174.198 227.764 173.762 228.506 173.281C229.248 172.845 229.903 172.321 230.689 171.928C231.693 171.361 232.784 170.968 233.876 170.531C234.443 170.313 234.967 170.007 235.578 169.833C237.281 169.265 239.027 168.829 240.817 168.523C240.817 168.523 240.817 168.523 240.86 168.523ZM201.615 129.54C219.557 129.54 234.312 143.378 235.84 160.927C235.578 160.971 235.36 161.058 235.142 161.102C234.181 161.364 233.265 161.626 232.348 161.931C231.911 162.106 231.518 162.281 231.126 162.411C230.383 162.673 229.685 162.979 228.986 163.285C228.55 163.459 228.113 163.677 227.677 163.896C227.066 164.201 226.411 164.507 225.8 164.856C225.363 165.074 224.97 165.336 224.534 165.598C223.923 165.947 223.355 166.297 222.788 166.69C222.395 166.952 221.958 167.257 221.565 167.563C221.041 167.956 220.518 168.348 219.994 168.741C219.601 169.091 219.208 169.396 218.815 169.745C218.291 170.182 217.811 170.619 217.374 171.055C216.982 171.404 216.632 171.754 216.239 172.146C215.803 172.583 215.366 173.063 214.93 173.543C214.581 173.936 214.275 174.329 213.926 174.722C213.533 175.246 213.14 175.726 212.747 176.25C212.441 176.686 212.136 177.079 211.83 177.516C211.481 178.04 211.132 178.607 210.783 179.175C210.521 179.611 210.215 180.048 209.953 180.484C209.648 181.052 209.342 181.619 209.036 182.231C208.818 182.667 208.6 183.147 208.382 183.584C208.076 184.195 207.858 184.806 207.596 185.417C207.378 185.898 207.203 186.378 207.028 186.858C206.81 187.513 206.592 188.168 206.374 188.822C206.243 189.303 206.112 189.783 205.981 190.263C205.762 190.961 205.631 191.66 205.5 192.358C205.369 192.839 205.282 193.275 205.195 193.755C205.064 194.541 204.933 195.371 204.846 196.2C204.846 196.418 204.802 196.637 204.758 196.855H195.373C195.373 196.375 195.329 195.894 195.329 195.458C195.285 195.065 195.242 194.716 195.198 194.323C195.111 193.581 195.023 192.839 194.892 192.053C194.805 191.616 194.718 191.223 194.631 190.787C194.5 190.132 194.369 189.434 194.194 188.779C194.107 188.342 193.976 187.906 193.845 187.425C193.67 186.814 193.495 186.203 193.277 185.592C193.103 185.155 192.928 184.719 192.797 184.239C192.535 183.671 192.317 183.06 192.099 182.492C191.88 182.056 191.706 181.619 191.487 181.183C191.225 180.615 190.964 180.091 190.658 179.524C190.44 179.087 190.221 178.695 189.959 178.302C189.654 177.734 189.348 177.21 188.999 176.686C188.737 176.294 188.475 175.901 188.213 175.508C187.864 174.984 187.515 174.46 187.122 173.98C186.86 173.587 186.554 173.238 186.293 172.845C185.9 172.365 185.463 171.884 185.07 171.448C184.765 171.099 184.459 170.749 184.11 170.4C183.673 169.92 183.237 169.483 182.757 169.047C182.451 168.741 182.102 168.392 181.796 168.087C181.316 167.65 180.792 167.257 180.312 166.864C179.963 166.559 179.613 166.253 179.264 165.991C178.74 165.598 178.173 165.205 177.649 164.856C177.256 164.594 176.907 164.332 176.558 164.07C175.99 163.721 175.379 163.372 174.811 163.023C174.419 162.804 174.069 162.586 173.676 162.368C173.065 162.062 172.41 161.757 171.756 161.451C171.363 161.276 171.013 161.058 170.621 160.927C169.878 160.578 169.049 160.272 168.263 159.967C168.001 159.88 167.783 159.792 167.521 159.705C169.573 142.549 183.979 129.54 201.615 129.54ZM145.476 167.039C150.671 165.598 156.564 165.555 162.021 166.864V166.908H162.152C163.767 167.344 165.338 167.868 166.866 168.523C166.954 168.567 167.085 168.61 167.216 168.654C168.656 169.265 170.053 170.051 171.406 170.88C171.581 170.968 171.712 171.055 171.887 171.142C173.153 171.972 174.375 172.889 175.554 173.893C175.685 174.024 175.859 174.155 176.034 174.329C177.125 175.333 178.173 176.381 179.133 177.56C179.308 177.734 179.439 177.865 179.57 178.04C180.53 179.218 181.36 180.441 182.145 181.707C182.276 181.925 182.407 182.1 182.538 182.318C183.28 183.584 183.935 184.937 184.503 186.334C184.59 186.552 184.677 186.771 184.765 186.989C185.288 188.386 185.769 189.826 186.118 191.311C186.162 191.529 186.205 191.747 186.249 191.965C186.554 193.493 186.773 195.021 186.904 196.593V196.855H121.117C121.99 182.798 131.725 170.706 145.476 167.039ZM200 289.577C152.591 289.577 113.783 252.165 111.6 205.324H288.4C286.217 252.165 247.409 289.577 200 289.577Z" fill="#6B6BA5"/>
<path d="M288.4 205.323C286.217 252.165 247.409 289.576 200 289.576C152.591 289.576 113.783 252.165 111.6 205.323H288.4V205.323Z" fill="#E6EDF6"/>
<path d="M288.4 205.323C286.217 252.165 247.409 289.576 200 289.576C228.288 289.576 251.425 252.165 252.734 205.323H288.4V205.323ZM200 289.576C152.591 289.576 113.783 252.165 111.6 205.323H147.265C148.575 252.165 171.712 289.576 200 289.576Z" fill="#C8D5E4"/>
<path d="M186.904 196.593V196.855H121.117C121.99 182.798 131.725 170.706 145.476 167.039C150.671 165.598 156.564 165.554 162.021 166.864V166.908H162.152C163.767 167.344 165.339 167.868 166.866 168.523C166.954 168.567 167.085 168.61 167.216 168.654C168.656 169.265 170.053 170.051 171.407 170.88C171.581 170.968 171.712 171.055 171.887 171.142C173.153 171.972 174.375 172.888 175.554 173.892C175.685 174.023 175.859 174.154 176.034 174.329C177.125 175.333 178.173 176.381 179.133 177.559C179.308 177.734 179.439 177.865 179.57 178.04C180.53 179.218 181.36 180.441 182.146 181.707C182.276 181.925 182.407 182.099 182.538 182.318C183.281 183.584 183.935 184.937 184.503 186.334C184.59 186.552 184.677 186.77 184.765 186.989C185.289 188.386 185.769 189.826 186.118 191.311C186.162 191.529 186.205 191.747 186.249 191.965C186.555 193.493 186.773 195.021 186.904 196.593Z" fill="#FFDC7C"/>
<path d="M278.665 196.855H213.315C213.446 195.851 213.708 194.934 213.926 193.973C214.057 193.231 214.188 192.446 214.406 191.747C214.668 190.83 215.061 190.001 215.41 189.128C215.716 188.342 215.978 187.556 216.327 186.814C216.676 186.028 217.2 185.33 217.636 184.588C218.073 183.802 218.466 183.016 218.99 182.274C219.47 181.576 220.037 181.008 220.561 180.353C221.129 179.655 221.653 178.869 222.308 178.214C222.875 177.647 223.573 177.123 224.185 176.555C224.839 175.944 225.494 175.289 226.236 174.766C226.935 174.198 227.764 173.761 228.506 173.281C229.249 172.845 229.903 172.321 230.689 171.928C231.693 171.36 232.785 170.968 233.876 170.531C234.443 170.313 234.967 170.007 235.578 169.833C237.281 169.265 239.027 168.829 240.817 168.523C240.817 168.523 240.817 168.523 240.861 168.523C242.65 168.217 244.44 168.086 246.186 168.086C262.993 168.086 276.57 180.703 278.665 196.855Z" fill="#F9E2DC"/>
<path d="M235.84 160.927C235.578 160.97 235.36 161.058 235.142 161.101C234.182 161.363 233.265 161.625 232.348 161.931C231.911 162.105 231.519 162.28 231.126 162.411C230.384 162.673 229.685 162.978 228.987 163.284C228.55 163.458 228.114 163.677 227.677 163.895C227.066 164.201 226.411 164.506 225.8 164.855C225.363 165.074 224.97 165.336 224.534 165.598C223.923 165.947 223.355 166.296 222.788 166.689C222.395 166.951 221.958 167.256 221.565 167.562C221.042 167.955 220.518 168.348 219.994 168.741C219.601 169.09 219.208 169.395 218.815 169.745C218.291 170.181 217.811 170.618 217.375 171.054C216.982 171.404 216.632 171.753 216.24 172.146C215.803 172.582 215.366 173.062 214.93 173.543C214.581 173.936 214.275 174.328 213.926 174.721C213.533 175.245 213.14 175.725 212.747 176.249C212.442 176.686 212.136 177.079 211.83 177.515C211.481 178.039 211.132 178.607 210.783 179.174C210.521 179.611 210.215 180.047 209.953 180.484C209.648 181.051 209.342 181.619 209.037 182.23C208.818 182.666 208.6 183.147 208.382 183.583C208.076 184.194 207.858 184.805 207.596 185.417C207.378 185.897 207.203 186.377 207.029 186.857C206.81 187.512 206.592 188.167 206.374 188.822C206.243 189.302 206.112 189.782 205.981 190.262C205.763 190.961 205.632 191.659 205.501 192.358C205.37 192.838 205.282 193.274 205.195 193.755C205.064 194.54 204.933 195.37 204.846 196.199C204.846 196.418 204.802 196.636 204.758 196.854H195.373C195.373 196.374 195.329 195.894 195.329 195.457C195.285 195.064 195.242 194.715 195.198 194.322C195.111 193.58 195.024 192.838 194.893 192.052C194.805 191.616 194.718 191.223 194.631 190.786C194.5 190.131 194.369 189.433 194.194 188.778C194.107 188.341 193.976 187.905 193.845 187.425C193.67 186.814 193.496 186.202 193.277 185.591C193.103 185.155 192.928 184.718 192.797 184.238C192.535 183.67 192.317 183.059 192.099 182.492C191.88 182.055 191.706 181.619 191.488 181.182C191.226 180.615 190.964 180.091 190.658 179.523C190.44 179.087 190.222 178.694 189.96 178.301C189.654 177.733 189.348 177.21 188.999 176.686C188.737 176.293 188.475 175.9 188.213 175.507C187.864 174.983 187.515 174.459 187.122 173.979C186.86 173.586 186.555 173.237 186.293 172.844C185.9 172.364 185.463 171.884 185.07 171.447C184.765 171.098 184.459 170.749 184.11 170.4C183.673 169.919 183.237 169.483 182.757 169.046C182.451 168.741 182.102 168.391 181.796 168.086C181.316 167.649 180.792 167.256 180.312 166.864C179.963 166.558 179.614 166.252 179.264 165.99C178.74 165.598 178.173 165.205 177.649 164.855C177.256 164.594 176.907 164.332 176.558 164.07C175.99 163.72 175.379 163.371 174.812 163.022C174.419 162.804 174.069 162.585 173.677 162.367C173.065 162.062 172.411 161.756 171.756 161.45C171.363 161.276 171.014 161.058 170.621 160.927C169.879 160.577 169.049 160.272 168.263 159.966C168.001 159.879 167.783 159.792 167.521 159.704C169.573 142.548 183.979 129.539 201.615 129.539C219.557 129.539 234.312 143.377 235.84 160.927Z" fill="#B1F1A8"/>
<path d="M186.904 196.593V196.855H184.896V196.811C184.765 196.593 184.677 196.374 184.634 196.156C184.066 194.759 183.368 193.406 182.626 192.14C182.495 191.922 182.364 191.747 182.233 191.529C181.447 190.263 180.618 189.041 179.701 187.862C179.526 187.687 179.439 187.556 179.221 187.382C178.26 186.203 177.256 185.155 176.165 184.151C175.947 183.977 175.772 183.846 175.685 183.715C174.462 182.711 173.24 181.794 171.974 180.964C171.843 180.877 171.668 180.79 171.537 180.703C170.184 179.873 168.787 179.087 167.303 178.476C167.216 178.433 167.041 178.389 166.954 178.345C165.426 177.69 163.898 177.167 162.283 176.73H162.108V176.686C156.651 175.377 150.802 175.42 145.607 176.861C135.173 179.655 127.054 187.251 123.343 196.855H121.117C121.99 182.798 131.725 170.706 145.476 167.039C150.671 165.598 156.564 165.554 162.021 166.864V166.908H162.152C163.767 167.344 165.339 167.868 166.866 168.523C166.954 168.567 167.085 168.61 167.216 168.654C168.656 169.265 170.053 170.051 171.407 170.88C171.581 170.968 171.712 171.055 171.887 171.142C173.153 171.972 174.375 172.888 175.554 173.892C175.685 174.023 175.859 174.154 176.034 174.329C177.125 175.333 178.173 176.381 179.133 177.559C179.308 177.734 179.439 177.865 179.57 178.04C180.53 179.218 181.36 180.441 182.146 181.707C182.276 181.925 182.407 182.099 182.538 182.318C183.281 183.584 183.935 184.937 184.503 186.334C184.59 186.552 184.677 186.77 184.765 186.989C185.289 188.386 185.769 189.826 186.118 191.311C186.162 191.529 186.205 191.747 186.249 191.965C186.555 193.493 186.773 195.021 186.904 196.593Z" fill="#ECC25D"/>
<path d="M278.665 196.855H275.871C270.677 185.679 259.501 177.909 246.317 177.909C244.528 177.909 242.781 178.04 240.948 178.345C240.904 178.345 240.904 178.345 240.904 178.345C239.114 178.651 237.368 179.087 235.709 179.655C235.098 179.829 234.574 180.135 234.007 180.353C232.916 180.79 231.824 181.183 230.82 181.75C229.991 182.143 229.38 182.667 228.637 183.104C227.852 183.584 227.022 184.02 226.367 184.588C225.625 185.112 224.927 185.766 224.272 186.378C223.704 186.945 222.962 187.469 222.395 188.036C221.784 188.691 221.26 189.477 220.692 190.176C220.168 190.83 219.601 191.398 219.077 192.096C218.553 192.838 218.204 193.624 217.724 194.41C217.287 195.152 216.807 195.851 216.414 196.636C216.37 196.724 216.327 196.767 216.327 196.855H213.315C213.446 195.851 213.708 194.934 213.926 193.973C214.057 193.231 214.188 192.446 214.406 191.747C214.668 190.83 215.061 190.001 215.41 189.128C215.716 188.342 215.978 187.556 216.327 186.814C216.676 186.028 217.2 185.33 217.636 184.588C218.073 183.802 218.466 183.016 218.99 182.274C219.47 181.576 220.037 181.008 220.561 180.353C221.129 179.655 221.653 178.869 222.308 178.214C222.875 177.647 223.573 177.123 224.185 176.555C224.839 175.944 225.494 175.289 226.236 174.766C226.935 174.198 227.764 173.761 228.506 173.281C229.249 172.845 229.903 172.321 230.689 171.928C231.693 171.36 232.785 170.968 233.876 170.531C234.443 170.313 234.967 170.007 235.578 169.833C237.281 169.265 239.027 168.829 240.817 168.523C240.817 168.523 240.817 168.523 240.861 168.523C242.65 168.217 244.44 168.086 246.186 168.086C262.993 168.086 276.57 180.703 278.665 196.855Z" fill="#FFCBCB"/>
<path d="M235.84 160.927C235.578 160.97 235.36 161.058 235.142 161.101C234.662 161.232 234.225 161.363 233.789 161.494C228.856 148.572 216.327 139.361 201.703 139.361C187.297 139.361 175.03 148.049 169.922 160.621C169.398 160.403 168.831 160.184 168.263 159.966C168.001 159.879 167.783 159.792 167.521 159.704C169.573 142.548 183.979 129.539 201.615 129.539C219.557 129.539 234.312 143.377 235.84 160.927Z" fill="#98EA8B"/>
</svg>
