<svg width="181" height="21" viewBox="0 0 181 21" fill="none" xmlns="http://www.w3.org/2000/svg">
<path d="M2.225 20C1.85833 20 1.55 19.875 1.3 19.625C1.05 19.375 0.925 19.0667 0.925 18.7V1.775C0.925 1.39167 1.05 1.08333 1.3 0.849999C1.55 0.599999 1.85833 0.475 2.225 0.475H13.525C13.9083 0.475 14.2167 0.591666 14.45 0.825C14.6833 1.04167 14.8 1.33333 14.8 1.7C14.8 2.05 14.6833 2.33333 14.45 2.55C14.2167 2.76667 13.9083 2.875 13.525 2.875H3.525V8.95H10.7C11.0833 8.95 11.3917 9.06667 11.625 9.3C11.8583 9.51667 11.975 9.8 11.975 10.15C11.975 10.5 11.8583 10.7917 11.625 11.025C11.3917 11.2417 11.0833 11.35 10.7 11.35H3.525V18.7C3.525 19.0667 3.4 19.375 3.15 19.625C2.9 19.875 2.59167 20 2.225 20ZM24.075 20.1C22.725 20.1 21.5333 19.8083 20.5 19.225C19.4667 18.625 18.65 17.8083 18.05 16.775C17.4667 15.725 17.175 14.525 17.175 13.175C17.175 11.8083 17.4667 10.6083 18.05 9.575C18.65 8.525 19.4667 7.70833 20.5 7.125C21.5333 6.525 22.725 6.225 24.075 6.225C25.4083 6.225 26.5917 6.525 27.625 7.125C28.6583 7.70833 29.4667 8.525 30.05 9.575C30.65 10.6083 30.95 11.8083 30.95 13.175C30.95 14.525 30.6583 15.725 30.075 16.775C29.4917 17.8083 28.6833 18.625 27.65 19.225C26.6167 19.8083 25.425 20.1 24.075 20.1ZM24.075 17.85C24.9417 17.85 25.7083 17.65 26.375 17.25C27.0417 16.85 27.5583 16.3 27.925 15.6C28.3083 14.9 28.5 14.0917 28.5 13.175C28.5 12.2583 28.3083 11.45 27.925 10.75C27.5583 10.0333 27.0417 9.475 26.375 9.075C25.7083 8.675 24.9417 8.475 24.075 8.475C23.2083 8.475 22.4417 8.675 21.775 9.075C21.1083 9.475 20.5833 10.0333 20.2 10.75C19.8167 11.45 19.625 12.2583 19.625 13.175C19.625 14.0917 19.8167 14.9 20.2 15.6C20.5833 16.3 21.1083 16.85 21.775 17.25C22.4417 17.65 23.2083 17.85 24.075 17.85ZM40.9451 20.1C39.5951 20.1 38.4035 19.8083 37.3701 19.225C36.3368 18.625 35.5201 17.8083 34.9201 16.775C34.3368 15.725 34.0451 14.525 34.0451 13.175C34.0451 11.8083 34.3368 10.6083 34.9201 9.575C35.5201 8.525 36.3368 7.70833 37.3701 7.125C38.4035 6.525 39.5951 6.225 40.9451 6.225C42.2785 6.225 43.4618 6.525 44.4951 7.125C45.5285 7.70833 46.3368 8.525 46.9201 9.575C47.5201 10.6083 47.8201 11.8083 47.8201 13.175C47.8201 14.525 47.5285 15.725 46.9451 16.775C46.3618 17.8083 45.5535 18.625 44.5201 19.225C43.4868 19.8083 42.2951 20.1 40.9451 20.1ZM40.9451 17.85C41.8118 17.85 42.5785 17.65 43.2451 17.25C43.9118 16.85 44.4285 16.3 44.7951 15.6C45.1785 14.9 45.3701 14.0917 45.3701 13.175C45.3701 12.2583 45.1785 11.45 44.7951 10.75C44.4285 10.0333 43.9118 9.475 43.2451 9.075C42.5785 8.675 41.8118 8.475 40.9451 8.475C40.0785 8.475 39.3118 8.675 38.6451 9.075C37.9785 9.475 37.4535 10.0333 37.0701 10.75C36.6868 11.45 36.4951 12.2583 36.4951 13.175C36.4951 14.0917 36.6868 14.9 37.0701 15.6C37.4535 16.3 37.9785 16.85 38.6451 17.25C39.3118 17.65 40.0785 17.85 40.9451 17.85ZM57.8152 20.1C56.5152 20.1 55.3402 19.8 54.2902 19.2C53.2569 18.5833 52.4319 17.75 51.8152 16.7C51.2152 15.65 50.9152 14.4667 50.9152 13.15C50.9152 11.8333 51.1902 10.6583 51.7402 9.625C52.3069 8.575 53.0736 7.75 54.0402 7.15C55.0069 6.53333 56.0986 6.225 57.3152 6.225C58.2986 6.225 59.2069 6.43333 60.0402 6.85C60.8736 7.25 61.5736 7.8 62.1402 8.5V1.75C62.1402 1.36667 62.2569 1.05833 62.4902 0.825C62.7402 0.591666 63.0486 0.475 63.4152 0.475C63.7986 0.475 64.1069 0.591666 64.3402 0.825C64.5736 1.05833 64.6902 1.36667 64.6902 1.75V13.15C64.6902 14.4667 64.3819 15.65 63.7652 16.7C63.1652 17.75 62.3486 18.5833 61.3152 19.2C60.2819 19.8 59.1152 20.1 57.8152 20.1ZM57.8152 17.85C58.6652 17.85 59.4236 17.65 60.0902 17.25C60.7569 16.8333 61.2819 16.2667 61.6652 15.55C62.0486 14.8333 62.2402 14.0333 62.2402 13.15C62.2402 12.25 62.0486 11.45 61.6652 10.75C61.2819 10.05 60.7569 9.5 60.0902 9.1C59.4236 8.68333 58.6652 8.475 57.8152 8.475C56.9819 8.475 56.2236 8.68333 55.5402 9.1C54.8736 9.5 54.3402 10.05 53.9402 10.75C53.5569 11.45 53.3652 12.25 53.3652 13.15C53.3652 14.0333 53.5569 14.8333 53.9402 15.55C54.3402 16.2667 54.8736 16.8333 55.5402 17.25C56.2236 17.65 56.9819 17.85 57.8152 17.85Z" fill="#0F100F"/>
<path d="M70.7434 20C70.3767 20 70.0684 19.875 69.8184 19.625C69.5684 19.375 69.4434 19.0667 69.4434 18.7V1.775C69.4434 1.39167 69.5684 1.08333 69.8184 0.849999C70.0684 0.599999 70.3767 0.475 70.7434 0.475H75.7434C76.9934 0.475 78.1017 0.749999 79.0684 1.3C80.035 1.85 80.785 2.61667 81.3184 3.6C81.8684 4.56667 82.1434 5.68333 82.1434 6.95C82.1434 8.16667 81.8684 9.25 81.3184 10.2C80.785 11.15 80.035 11.8917 79.0684 12.425C78.1017 12.9583 76.9934 13.225 75.7434 13.225H72.0434V18.7C72.0434 19.0667 71.9184 19.375 71.6684 19.625C71.435 19.875 71.1267 20 70.7434 20ZM72.0434 10.825H75.7434C76.51 10.825 77.185 10.6583 77.7684 10.325C78.3517 9.99167 78.81 9.53333 79.1434 8.95C79.4767 8.36667 79.6434 7.7 79.6434 6.95C79.6434 6.15 79.4767 5.45 79.1434 4.85C78.81 4.23333 78.3517 3.75 77.7684 3.4C77.185 3.05 76.51 2.875 75.7434 2.875H72.0434V10.825ZM89.9813 20.1C88.7646 20.1 87.6729 19.8 86.7063 19.2C85.7396 18.5833 84.9729 17.7583 84.4063 16.725C83.8563 15.675 83.5813 14.4917 83.5813 13.175C83.5813 11.8583 83.8813 10.675 84.4813 9.625C85.0979 8.575 85.9229 7.75 86.9563 7.15C88.0063 6.53333 89.1813 6.225 90.4813 6.225C91.7813 6.225 92.9479 6.53333 93.9813 7.15C95.0146 7.75 95.8313 8.575 96.4313 9.625C97.0479 10.675 97.3563 11.8583 97.3563 13.175H96.3813C96.3813 14.4917 96.0979 15.675 95.5313 16.725C94.9813 17.7583 94.2229 18.5833 93.2563 19.2C92.2896 19.8 91.1979 20.1 89.9813 20.1ZM90.4813 17.85C91.3313 17.85 92.0896 17.65 92.7563 17.25C93.4229 16.8333 93.9479 16.275 94.3313 15.575C94.7146 14.8583 94.9063 14.0583 94.9063 13.175C94.9063 12.275 94.7146 11.475 94.3313 10.775C93.9479 10.0583 93.4229 9.5 92.7563 9.1C92.0896 8.68333 91.3313 8.475 90.4813 8.475C89.6479 8.475 88.8896 8.68333 88.2063 9.1C87.5396 9.5 87.0063 10.0583 86.6063 10.775C86.2229 11.475 86.0313 12.275 86.0313 13.175C86.0313 14.0583 86.2229 14.8583 86.6063 15.575C87.0063 16.275 87.5396 16.8333 88.2063 17.25C88.8896 17.65 89.6479 17.85 90.4813 17.85ZM96.0813 20.025C95.7146 20.025 95.4063 19.9083 95.1563 19.675C94.9229 19.425 94.8063 19.1167 94.8063 18.75V14.925L95.2813 12.275L97.3563 13.175V18.75C97.3563 19.1167 97.2313 19.425 96.9813 19.675C96.7479 19.9083 96.4479 20.025 96.0813 20.025ZM102.376 11.45C102.376 10.45 102.618 9.55833 103.101 8.775C103.601 7.975 104.268 7.34167 105.101 6.875C105.935 6.40833 106.851 6.175 107.851 6.175C108.851 6.175 109.593 6.34167 110.076 6.675C110.576 6.99167 110.768 7.375 110.651 7.825C110.601 8.05833 110.501 8.24167 110.351 8.375C110.218 8.49167 110.06 8.56667 109.876 8.6C109.693 8.63333 109.493 8.625 109.276 8.575C108.21 8.35833 107.251 8.34167 106.401 8.525C105.551 8.70833 104.876 9.05 104.376 9.55C103.893 10.05 103.651 10.6833 103.651 11.45H102.376ZM102.401 20C102.001 20 101.693 19.9 101.476 19.7C101.26 19.4833 101.151 19.1667 101.151 18.75V7.575C101.151 7.175 101.26 6.86667 101.476 6.65C101.693 6.43333 102.001 6.325 102.401 6.325C102.818 6.325 103.126 6.43333 103.326 6.65C103.543 6.85 103.651 7.15833 103.651 7.575V18.75C103.651 19.15 103.543 19.4583 103.326 19.675C103.126 19.8917 102.818 20 102.401 20ZM118.009 20.1C116.792 20.1 115.7 19.8 114.734 19.2C113.767 18.5833 113 17.7583 112.434 16.725C111.884 15.675 111.609 14.4917 111.609 13.175C111.609 11.8583 111.909 10.675 112.509 9.625C113.125 8.575 113.95 7.75 114.984 7.15C116.034 6.53333 117.209 6.225 118.509 6.225C119.809 6.225 120.975 6.53333 122.009 7.15C123.042 7.75 123.859 8.575 124.459 9.625C125.075 10.675 125.384 11.8583 125.384 13.175H124.409C124.409 14.4917 124.125 15.675 123.559 16.725C123.009 17.7583 122.25 18.5833 121.284 19.2C120.317 19.8 119.225 20.1 118.009 20.1ZM118.509 17.85C119.359 17.85 120.117 17.65 120.784 17.25C121.45 16.8333 121.975 16.275 122.359 15.575C122.742 14.8583 122.934 14.0583 122.934 13.175C122.934 12.275 122.742 11.475 122.359 10.775C121.975 10.0583 121.45 9.5 120.784 9.1C120.117 8.68333 119.359 8.475 118.509 8.475C117.675 8.475 116.917 8.68333 116.234 9.1C115.567 9.5 115.034 10.0583 114.634 10.775C114.25 11.475 114.059 12.275 114.059 13.175C114.059 14.0583 114.25 14.8583 114.634 15.575C115.034 16.275 115.567 16.8333 116.234 17.25C116.917 17.65 117.675 17.85 118.509 17.85ZM124.109 20.025C123.742 20.025 123.434 19.9083 123.184 19.675C122.95 19.425 122.834 19.1167 122.834 18.75V14.925L123.309 12.275L125.384 13.175V18.75C125.384 19.1167 125.259 19.425 125.009 19.675C124.775 19.9083 124.475 20.025 124.109 20.025ZM135.379 20.1C134.079 20.1 132.904 19.8 131.854 19.2C130.82 18.5833 129.995 17.75 129.379 16.7C128.779 15.65 128.479 14.4667 128.479 13.15C128.479 11.8333 128.754 10.6583 129.304 9.625C129.87 8.575 130.637 7.75 131.604 7.15C132.57 6.53333 133.662 6.225 134.879 6.225C135.862 6.225 136.77 6.43333 137.604 6.85C138.437 7.25 139.137 7.8 139.704 8.5V1.75C139.704 1.36667 139.82 1.05833 140.054 0.825C140.304 0.591666 140.612 0.475 140.979 0.475C141.362 0.475 141.67 0.591666 141.904 0.825C142.137 1.05833 142.254 1.36667 142.254 1.75V13.15C142.254 14.4667 141.945 15.65 141.329 16.7C140.729 17.75 139.912 18.5833 138.879 19.2C137.845 19.8 136.679 20.1 135.379 20.1ZM135.379 17.85C136.229 17.85 136.987 17.65 137.654 17.25C138.32 16.8333 138.845 16.2667 139.229 15.55C139.612 14.8333 139.804 14.0333 139.804 13.15C139.804 12.25 139.612 11.45 139.229 10.75C138.845 10.05 138.32 9.5 137.654 9.1C136.987 8.68333 136.229 8.475 135.379 8.475C134.545 8.475 133.787 8.68333 133.104 9.1C132.437 9.5 131.904 10.05 131.504 10.75C131.12 11.45 130.929 12.25 130.929 13.15C130.929 14.0333 131.12 14.8333 131.504 15.55C131.904 16.2667 132.437 16.8333 133.104 17.25C133.787 17.65 134.545 17.85 135.379 17.85ZM148.282 20C147.915 20 147.607 19.8833 147.357 19.65C147.124 19.4 147.007 19.0917 147.007 18.725V7.6C147.007 7.21667 147.124 6.90833 147.357 6.675C147.607 6.44167 147.915 6.325 148.282 6.325C148.665 6.325 148.974 6.44167 149.207 6.675C149.44 6.90833 149.557 7.21667 149.557 7.6V18.725C149.557 19.0917 149.44 19.4 149.207 19.65C148.974 19.8833 148.665 20 148.282 20ZM148.282 4.1C147.832 4.1 147.44 3.94167 147.107 3.625C146.79 3.29167 146.632 2.9 146.632 2.45C146.632 2 146.79 1.61667 147.107 1.3C147.44 0.966666 147.832 0.8 148.282 0.8C148.732 0.8 149.115 0.966666 149.432 1.3C149.765 1.61667 149.932 2 149.932 2.45C149.932 2.9 149.765 3.29167 149.432 3.625C149.115 3.94167 148.732 4.1 148.282 4.1ZM159.276 20.1C158.109 20.1 157.026 19.925 156.026 19.575C155.042 19.2083 154.276 18.75 153.726 18.2C153.476 17.9333 153.367 17.6333 153.401 17.3C153.451 16.95 153.617 16.6667 153.901 16.45C154.234 16.1833 154.559 16.075 154.876 16.125C155.209 16.1583 155.492 16.3 155.726 16.55C156.009 16.8667 156.459 17.1667 157.076 17.45C157.709 17.7167 158.409 17.85 159.176 17.85C160.142 17.85 160.876 17.6917 161.376 17.375C161.892 17.0583 162.159 16.65 162.176 16.15C162.192 15.65 161.951 15.2167 161.451 14.85C160.967 14.4833 160.076 14.1833 158.776 13.95C157.092 13.6167 155.867 13.1167 155.101 12.45C154.351 11.7833 153.976 10.9667 153.976 10C153.976 9.15 154.226 8.45 154.726 7.9C155.226 7.33333 155.867 6.91667 156.651 6.65C157.434 6.36667 158.251 6.225 159.101 6.225C160.201 6.225 161.176 6.4 162.026 6.75C162.876 7.1 163.551 7.58333 164.051 8.2C164.284 8.46667 164.392 8.75 164.376 9.05C164.359 9.33333 164.217 9.575 163.951 9.775C163.684 9.95833 163.367 10.0167 163.001 9.95C162.634 9.88333 162.326 9.73333 162.076 9.5C161.659 9.1 161.209 8.825 160.726 8.675C160.242 8.525 159.684 8.45 159.051 8.45C158.317 8.45 157.692 8.575 157.176 8.825C156.676 9.075 156.426 9.44167 156.426 9.925C156.426 10.225 156.501 10.5 156.651 10.75C156.817 10.9833 157.134 11.2 157.601 11.4C158.067 11.5833 158.751 11.7667 159.651 11.95C160.901 12.2 161.884 12.5167 162.601 12.9C163.334 13.2833 163.859 13.7333 164.176 14.25C164.492 14.75 164.651 15.3333 164.651 16C164.651 16.7667 164.442 17.4583 164.026 18.075C163.626 18.6917 163.026 19.1833 162.226 19.55C161.442 19.9167 160.459 20.1 159.276 20.1ZM174.3 20.1C172.917 20.1 171.683 19.8083 170.6 19.225C169.533 18.625 168.692 17.8083 168.075 16.775C167.475 15.725 167.175 14.525 167.175 13.175C167.175 11.8083 167.458 10.6083 168.025 9.575C168.608 8.525 169.408 7.70833 170.425 7.125C171.442 6.525 172.608 6.225 173.925 6.225C175.225 6.225 176.342 6.51667 177.275 7.1C178.208 7.66667 178.917 8.45833 179.4 9.475C179.9 10.475 180.15 11.6333 180.15 12.95C180.15 13.2667 180.042 13.5333 179.825 13.75C179.608 13.95 179.333 14.05 179 14.05H168.925V12.05H178.925L177.9 12.75C177.883 11.9167 177.717 11.175 177.4 10.525C177.083 9.85833 176.633 9.33333 176.05 8.95C175.467 8.56667 174.758 8.375 173.925 8.375C172.975 8.375 172.158 8.58333 171.475 9C170.808 9.41667 170.3 9.99167 169.95 10.725C169.6 11.4417 169.425 12.2583 169.425 13.175C169.425 14.0917 169.633 14.9083 170.05 15.625C170.467 16.3417 171.042 16.9083 171.775 17.325C172.508 17.7417 173.35 17.95 174.3 17.95C174.817 17.95 175.342 17.8583 175.875 17.675C176.425 17.475 176.867 17.25 177.2 17C177.45 16.8167 177.717 16.725 178 16.725C178.3 16.7083 178.558 16.7917 178.775 16.975C179.058 17.225 179.208 17.5 179.225 17.8C179.242 18.1 179.108 18.3583 178.825 18.575C178.258 19.025 177.55 19.3917 176.7 19.675C175.867 19.9583 175.067 20.1 174.3 20.1Z" fill="#F05959"/>
</svg>
